<?xml version="1.0" encoding="UTF-8" standalone="no"?>
<!-- Created with Inkscape (http://www.inkscape.org/) -->

<svg
   width="210mm"
   height="210mm"
   viewBox="0 0 210 210"
   version="1.1"
   id="svg1"
   inkscape:version="1.3.1 (9b9bdc1480, 2023-11-25, custom)"
   sodipodi:docname="emedtricslogo.svg"
   xmlns:inkscape="http://www.inkscape.org/namespaces/inkscape"
   xmlns:sodipodi="http://sodipodi.sourceforge.net/DTD/sodipodi-0.dtd"
   xmlns="http://www.w3.org/2000/svg"
   xmlns:svg="http://www.w3.org/2000/svg">
  <sodipodi:namedview
     id="namedview1"
     pagecolor="#ffffff"
     bordercolor="#cccccc"
     borderopacity="1"
     inkscape:showpageshadow="0"
     inkscape:pageopacity="1"
     inkscape:pagecheckerboard="0"
     inkscape:deskcolor="#d1d1d1"
     inkscape:document-units="mm"
     showguides="true"
     inkscape:zoom="0.63446243"
     inkscape:cx="356.99513"
     inkscape:cy="468.90089"
     inkscape:window-width="1366"
     inkscape:window-height="704"
     inkscape:window-x="0"
     inkscape:window-y="0"
     inkscape:window-maximized="1"
     inkscape:current-layer="g9"
     showgrid="false">
    <sodipodi:guide
       position="132.26061,136.42812"
       orientation="0,-1"
       id="guide2"
       inkscape:locked="false" />
    <sodipodi:guide
       position="94.072071,157.44434"
       orientation="1,0"
       id="guide3"
       inkscape:locked="false" />
    <sodipodi:guide
       position="119.06092,152.99543"
       orientation="0,-1"
       id="guide5"
       inkscape:locked="false" />
    <sodipodi:guide
       position="121.37528,139.36643"
       orientation="1,0"
       id="guide6"
       inkscape:locked="false" />
    <sodipodi:guide
       position="150.17619,119.5658"
       orientation="1,0"
       id="guide7"
       inkscape:locked="false" />
    <sodipodi:guide
       position="138.86155,182.5678"
       orientation="0,-1"
       id="guide8"
       inkscape:locked="false" />
    <sodipodi:guide
       position="57.675943,94.167476"
       orientation="1,0"
       id="guide4"
       inkscape:locked="false" />
    <sodipodi:guide
       position="125.44518,116.27659"
       orientation="0,-1"
       id="guide9"
       inkscape:locked="false" />
  </sodipodi:namedview>
  <defs
     id="defs1">
    <rect
       x="311.51573"
       y="421.95556"
       width="343.80079"
       height="73.665208"
       id="rect9" />
    <rect
       x="125.87519"
       y="598.58661"
       width="528.22309"
       height="123.31355"
       id="rect2" />
  </defs>
  <g
     inkscape:label="Layer 1"
     inkscape:groupmode="layer"
     id="layer1">
    <g
       id="g9"
       transform="matrix(1.2651647,0,0,1.2651647,-3.3862115,-11.003557)">
      <path
         id="rect1"
         style="fill:#ff0000;stroke:none;stroke-width:0.114201"
         d="m 56.917518,43.22194 c -7.256811,0 -13.098976,5.842163 -13.098976,13.098979 v 25.65266 H 17.886739 c -7.256815,0 -13.0989795,5.842162 -13.0989795,13.098979 0,7.256822 5.8421645,13.098982 13.0989795,13.098982 h 25.931803 v 25.33575 c 0,7.25682 5.842165,13.09898 13.098976,13.09898 7.256817,0 13.098979,-5.84216 13.098979,-13.09898 v -25.33575 h 25.056028 c 7.256815,0 13.098975,-5.84216 13.098975,-13.098982 0,-7.256817 -5.84216,-13.098979 -13.098975,-13.098979 H 70.016497 v -25.65266 c 0,-7.256816 -5.842162,-13.098979 -13.098979,-13.098979 z" />
      <path
         id="rect3"
         style="fill:#ff6600;stroke-width:0.114201"
         d="m 80.042143,56.278951 h 11.130266 c 2.838217,0 5.12313,2.284912 5.12313,5.123118 v 10.397095 c 0,2.838206 -2.284913,5.123118 -5.12313,5.123118 H 80.042143 c -2.838206,0 -5.123118,-2.284912 -5.123118,-5.123118 V 61.402069 c 0,-2.838206 2.284912,-5.123118 5.123118,-5.123118 z" />
      <path
         id="rect3-2"
         style="fill:#ffaaaa;stroke-width:0.0727236"
         d="m 101.36972,41.49707 h 6.37145 c 2.00581,0 3.62059,1.61478 3.62059,3.620585 v 5.904574 c 0,2.005793 -1.61478,3.620574 -3.62059,3.620574 h -6.37145 c -2.005804,0 -3.620584,-1.614781 -3.620584,-3.620574 v -5.904574 c 0,-2.005805 1.61478,-3.620585 3.620584,-3.620585 z" />
      <text
         xml:space="preserve"
         transform="matrix(0.26458333,0,0,0.26458333,-7.4752044,3.3290306)"
         id="text9"
         style="font-style:normal;font-variant:normal;font-weight:normal;font-stretch:normal;font-size:53.3333px;font-family:'padmaa-Bold.1.1';-inkscape-font-specification:'padmaa-Bold.1.1, Normal';font-variant-ligatures:normal;font-variant-caps:normal;font-variant-numeric:normal;font-variant-east-asian:normal;text-align:end;white-space:pre;shape-inside:url(#rect9);display:inline;fill:#ff0000;fill-opacity:1;stroke:none;stroke-width:0.377953"
         inkscape:transform-center-x="0.87840451"
         inkscape:transform-center-y="-0.13325098"><tspan
           x="314.95203"
           y="464.28274"
           id="tspan1">E-MEDTRICS</tspan></text>
    </g>
  </g>
</svg>
