<?xml version="1.0" encoding="iso-8859-1"?>
<!-- Uploaded to: SVG Repo, www.svgrepo.com, Generator: SVG Repo Mixer Tools -->
<svg height="800px" width="800px" version="1.1" id="Layer_1" xmlns="http://www.w3.org/2000/svg" xmlns:xlink="http://www.w3.org/1999/xlink" 
	 viewBox="0 0 512 512" xml:space="preserve">
<path style="fill:#EB86BF;" d="M512,256.006C512,397.401,397.394,512.004,256.004,512C114.605,512.004,0,397.402,0,256.006
	C-0.008,114.61,114.605,0,256.004,0C397.394,0,512,114.614,512,256.006z"/>
<path style="fill:#D670AD;" d="M512,256.005c0-1.616-0.091-3.209-0.123-4.818c-0.403-0.417-0.807-0.828-1.229-1.231
	c-0.497-0.521-82.895-82.918-83.415-83.414c-8.022-8.422-19.275-13.737-31.798-13.737h-43.531c-0.308-0.308-0.653-0.574-0.973-0.869
	c-0.494-0.523-41.937-41.975-42.465-42.465c-5.884-6.218-14.211-10.174-23.517-10.174H224.32c-17.079,0-29.471,13.302-29.471,31.629
	v21.879h-78.284c-24.276,0-44.02,19.748-44.02,44.02v171.856c0,12.523,5.315,23.773,13.737,31.796
	c0.497,0.522,101.092,101.117,101.612,101.612c0.31,0.326,0.633,0.637,0.95,0.951c21.41,5.806,43.913,8.96,67.162,8.96
	C397.394,512.004,512,397.401,512,256.005z"/>
<g>
	<path style="fill:#F4F6F9;" d="M332.44,244.534h-38.22v-38.22c0-4.222-3.419-7.644-7.644-7.644h-61.152
		c-4.225,0-7.644,3.423-7.644,7.644v38.22h-38.22c-4.225,0-7.644,3.423-7.644,7.644v61.152c0,4.222,3.419,7.644,7.644,7.644h38.22
		v38.22c0,4.222,3.419,7.644,7.644,7.644h61.152c4.225,0,7.644-3.423,7.644-7.644v-38.22h38.22c4.225,0,7.644-3.423,7.644-7.644
		v-61.152C340.084,247.956,336.665,244.534,332.44,244.534z M324.795,305.686h-38.22c-4.225,0-7.644,3.423-7.644,7.644v38.22
		h-45.863v-38.22c0-4.222-3.419-7.644-7.644-7.644h-38.22v-45.863h38.22c4.225,0,7.644-3.423,7.644-7.644v-38.22h45.863v38.22
		c0,4.222,3.419,7.644,7.644,7.644h38.22V305.686L324.795,305.686z"/>
	<path style="fill:#F4F6F9;" d="M395.435,152.806h-78.284v-21.879c0-17.442-14.445-31.629-32.204-31.629h-60.629
		c-17.079,0-29.471,13.302-29.471,31.629v21.879h-78.284c-24.275,0-44.02,19.748-44.02,44.02v171.856
		c0,24.272,19.744,44.02,44.02,44.02h278.871c24.275,0,44.02-19.748,44.02-44.02V196.827
		C439.456,172.555,419.712,152.806,395.435,152.806z M210.136,130.927c0-8.133,4.382-16.34,14.183-16.34h60.629
		c9.324,0,16.915,7.33,16.915,16.34v21.879h-91.728L210.136,130.927L210.136,130.927z M424.168,368.682
		c0,15.844-12.892,28.732-28.732,28.732H116.564c-15.84,0-28.732-12.889-28.732-28.732V196.827
		c0-15.844,12.892-28.732,28.732-28.732h278.871c15.84,0,28.732,12.889,28.732,28.732v171.855H424.168z"/>
</g>
</svg>