<?xml version="1.0" encoding="iso-8859-1"?>
<!-- Uploaded to: SVG Repo, www.svgrepo.com, Generator: SVG Repo Mixer Tools -->
<svg height="800px" width="800px" version="1.1" id="Layer_1" xmlns="http://www.w3.org/2000/svg" xmlns:xlink="http://www.w3.org/1999/xlink" 
	 viewBox="0 0 512 512" xml:space="preserve">
<path style="fill:#EB86BF;" d="M0,256.006C0,397.402,114.606,512.004,255.996,512C397.394,512.004,512,397.402,512,256.006
	C512.009,114.61,397.394,0,255.996,0C114.606,0,0,114.614,0,256.006z"/>
<path style="fill:#D670AD;" d="M506.255,309.96c-0.151-0.128-0.307-0.243-0.453-0.379c-0.16-0.171-0.275-0.371-0.442-0.538
	c-0.082-0.083-0.182-0.137-0.267-0.218c-0.082-0.084-0.138-0.187-0.222-0.271c-0.183-0.183-0.397-0.314-0.585-0.489
	c-0.161-0.172-220.592-220.688-220.837-220.933c-7.859-7.858-20.033-8.796-28.94-2.85l-0.443-0.443
	c-7.143-7.14-16.631-11.07-26.731-11.07s-19.588,3.931-26.724,11.07l-71.043,71.039c-40.601,40.606-40.601,106.676,0,147.282
	c0.025,0.023,0.051,0.043,0.075,0.067c-0.455,21.04,6.883,66.409,23.343,83.124c0.35,0.355,0.721,0.655,1.073,1.002
	c0.151,0.16,0.29,0.359,0.444,0.515c0.35,0.355,123.564,123.499,123.917,123.845c0.069,0.073,0.137,0.153,0.202,0.235
	C391.309,501.078,483.019,418.261,506.255,309.96z"/>
<path style="fill:#F4F6F9;" d="M399.071,355.189c9.415-18.03,6.829-41.286-6.993-55.156c-8.502-8.537-19.774-13.231-31.741-13.231
	c-0.045,0-0.09,0-0.134,0c-12.018,0.033-23.313,4.8-31.442,13.075l-82.262,73.29c-12.847,13.041-27.561,19.935-42.557,19.935
	c-14.303,0-28.15-6.386-40.057-18.476c-9.636-9.783-16.549-38.054-18.448-59.42c16.964,11.357,36.901,17.459,57.773,17.459
	c27.822,0,53.971-10.835,73.641-30.506l71.043-71.036c14.729-14.739,14.729-38.72-0.007-53.463l-0.428-0.427
	c2.51-3.739,3.861-8.134,3.861-12.738c0-6.125-2.388-11.884-6.718-16.213c-8.943-8.943-23.485-8.939-32.428-0.003
	c-4.33,4.334-6.718,10.093-6.718,16.218s2.388,11.884,6.718,16.213c4.471,4.471,10.339,6.707,16.213,6.707
	c2.225,0,4.425-0.426,6.572-1.067l2.125,2.123c8.771,8.779,8.771,23.062,0,31.841l-71.043,71.036
	c-12.497,12.497-28.065,20.798-45.002,24.23c-0.299-1.228-0.791-2.415-1.713-3.407l-99.372-107.017
	c-0.589-0.636-1.301-1.069-2.026-1.457c4.027-13.926,11.494-27.058,22.449-38.013l71.043-71.039c8.495-8.51,23.328-8.495,31.838,0
	l2.114,2.116c-0.636,2.118-1.069,4.307-1.069,6.58c0,6.125,2.388,11.884,6.718,16.213c4.471,4.471,10.339,6.707,16.213,6.707
	c5.875,0,11.742-2.236,16.213-6.703v-0.004c4.33-4.33,6.718-10.089,6.718-16.213c0-6.125-2.388-11.884-6.718-16.213
	c-7.858-7.858-20.032-8.797-28.94-2.849l-0.443-0.443c-7.143-7.14-16.631-11.07-26.732-11.07c-10.1,0-19.588,3.931-26.724,11.07
	l-71.043,71.039c-40.602,40.605-40.602,106.676,0,147.281c0.023,0.023,0.05,0.044,0.075,0.067
	c-0.457,21.04,6.883,66.41,23.343,83.124c14.848,15.072,32.473,23.037,50.955,23.037c19.185,0,37.667-8.469,53.09-24.153
	l82.255-73.29c5.606-5.689,13.049-8.834,20.961-8.857c0.03,0,0.06,0,0.082,0c7.883,0,15.302,3.102,20.924,8.734
	c8.644,8.679,10.629,23.061,5.53,34.954c-7.154-3.86-15.193-5.916-23.55-5.916c-13.273,0-25.746,5.169-35.13,14.553
	c-9.383,9.379-14.557,21.857-14.557,35.13s5.173,25.75,14.557,35.133c9.383,9.383,21.857,14.553,35.13,14.553
	s25.754-5.166,35.137-14.553C417.494,405.551,417.701,374.612,399.071,355.189z M322.985,169.899
	c-1.449-1.441-2.239-3.359-2.239-5.401s0.791-3.961,2.239-5.405c1.493-1.489,3.449-2.236,5.405-2.236s3.911,0.747,5.405,2.239
	c1.449,1.441,2.239,3.359,2.239,5.401s-0.791,3.961-2.239,5.401v0.003C330.807,172.881,325.97,172.884,322.985,169.899z
	 M267.236,95.706c1.956,0,3.911,0.747,5.405,2.239c1.449,1.441,2.239,3.359,2.239,5.401s-0.791,3.961-2.239,5.401v0.004
	c-2.986,2.978-7.823,2.982-10.81-0.004c-1.449-1.441-2.239-3.359-2.239-5.401s0.791-3.961,2.239-5.405
	C263.325,96.452,265.281,95.706,267.236,95.706z M114.707,221.972l88.587,95.402c-0.029,0-0.055,0.004-0.084,0.004
	c-23.731,0-46.043-9.245-62.832-26.027C121.393,272.366,112.884,246.858,114.707,221.972z M387.563,413.869
	c-6.501,6.498-15.139,10.074-24.327,10.074s-17.826-3.575-24.32-10.074c-6.502-6.498-10.078-15.135-10.078-24.324
	c0-9.185,3.575-17.822,10.078-24.32c6.495-6.498,15.132-10.074,24.32-10.074c9.188,0,17.826,3.575,24.327,10.074
	C400.97,378.635,400.97,400.454,387.563,413.869z"/>
</svg>